<mxfile host="app.diagrams.net" agent="Mozilla/5.0 (Windows NT 10.0; Win64; x64) AppleWebKit/537.36 (KHTML, like Gecko) Chrome/138.0.0.0 Safari/537.36" version="27.1.6">
  <diagram name="Page-1" id="-9Y_kzjMXiGFkFCnPePE">
    <mxGraphModel dx="2437" dy="616" grid="1" gridSize="10" guides="1" tooltips="1" connect="1" arrows="1" fold="1" page="1" pageScale="1" pageWidth="850" pageHeight="1100" math="0" shadow="0">
      <root>
        <mxCell id="0" />
        <mxCell id="1" parent="0" />
        <mxCell id="dz4LIF3dMp10zd91oUcG-195" value="" style="rounded=0;whiteSpace=wrap;html=1;" vertex="1" parent="1">
          <mxGeometry x="160" width="660" height="1160" as="geometry" />
        </mxCell>
        <mxCell id="dz4LIF3dMp10zd91oUcG-196" value="Kepsek" style="shape=umlActor;verticalLabelPosition=bottom;verticalAlign=top;html=1;outlineConnect=0;" vertex="1" parent="1">
          <mxGeometry x="-240" y="475" width="30" height="60" as="geometry" />
        </mxCell>
        <mxCell id="dz4LIF3dMp10zd91oUcG-198" value="Admin" style="shape=umlActor;verticalLabelPosition=bottom;verticalAlign=top;html=1;outlineConnect=0;" vertex="1" parent="1">
          <mxGeometry x="-240" y="610" width="30" height="60" as="geometry" />
        </mxCell>
        <mxCell id="dz4LIF3dMp10zd91oUcG-199" value="Guru" style="shape=umlActor;verticalLabelPosition=bottom;verticalAlign=top;html=1;outlineConnect=0;" vertex="1" parent="1">
          <mxGeometry x="990" y="520" width="30" height="60" as="geometry" />
        </mxCell>
        <mxCell id="dz4LIF3dMp10zd91oUcG-201" value="Login" style="ellipse;whiteSpace=wrap;html=1;" vertex="1" parent="1">
          <mxGeometry x="395" y="70" width="190" height="80" as="geometry" />
        </mxCell>
        <mxCell id="dz4LIF3dMp10zd91oUcG-202" value="Input Nilai Alternatif" style="ellipse;whiteSpace=wrap;html=1;" vertex="1" parent="1">
          <mxGeometry x="220" y="175" width="190" height="80" as="geometry" />
        </mxCell>
        <mxCell id="dz4LIF3dMp10zd91oUcG-204" value="Input Nilai Kriteria" style="ellipse;whiteSpace=wrap;html=1;" vertex="1" parent="1">
          <mxGeometry x="220" y="275" width="190" height="80" as="geometry" />
        </mxCell>
        <mxCell id="dz4LIF3dMp10zd91oUcG-205" value="Input Nilai Sub Kriteria" style="ellipse;whiteSpace=wrap;html=1;" vertex="1" parent="1">
          <mxGeometry x="450" y="380" width="190" height="80" as="geometry" />
        </mxCell>
        <mxCell id="dz4LIF3dMp10zd91oUcG-206" value="Mengelola Data Guru" style="ellipse;whiteSpace=wrap;html=1;" vertex="1" parent="1">
          <mxGeometry x="220" y="395" width="190" height="80" as="geometry" />
        </mxCell>
        <mxCell id="dz4LIF3dMp10zd91oUcG-207" value="Mengelola Data Admin" style="ellipse;whiteSpace=wrap;html=1;" vertex="1" parent="1">
          <mxGeometry x="220" y="520" width="190" height="80" as="geometry" />
        </mxCell>
        <mxCell id="dz4LIF3dMp10zd91oUcG-208" value="Menekan Tombol Proses Hitung Aras" style="ellipse;whiteSpace=wrap;html=1;" vertex="1" parent="1">
          <mxGeometry x="220" y="630" width="190" height="80" as="geometry" />
        </mxCell>
        <mxCell id="dz4LIF3dMp10zd91oUcG-209" value="Melihat Halaman Hasil Rangking" style="ellipse;whiteSpace=wrap;html=1;" vertex="1" parent="1">
          <mxGeometry x="330" y="750" width="190" height="80" as="geometry" />
        </mxCell>
        <mxCell id="dz4LIF3dMp10zd91oUcG-210" value="Mencetak Laporan" style="ellipse;whiteSpace=wrap;html=1;" vertex="1" parent="1">
          <mxGeometry x="330" y="870" width="190" height="80" as="geometry" />
        </mxCell>
        <mxCell id="dz4LIF3dMp10zd91oUcG-211" value="Logout" style="ellipse;whiteSpace=wrap;html=1;" vertex="1" parent="1">
          <mxGeometry x="375" y="980" width="190" height="80" as="geometry" />
        </mxCell>
        <mxCell id="dz4LIF3dMp10zd91oUcG-213" value="Melihat Data Pribadi" style="ellipse;whiteSpace=wrap;html=1;" vertex="1" parent="1">
          <mxGeometry x="540" y="560" width="190" height="80" as="geometry" />
        </mxCell>
        <mxCell id="dz4LIF3dMp10zd91oUcG-215" value="Pengelola sistem" style="shape=umlActor;verticalLabelPosition=bottom;verticalAlign=top;html=1;outlineConnect=0;" vertex="1" parent="1">
          <mxGeometry x="-140" y="530" width="30" height="60" as="geometry" />
        </mxCell>
        <mxCell id="dz4LIF3dMp10zd91oUcG-223" value="" style="endArrow=open;endFill=1;endSize=12;html=1;rounded=0;exitX=0.5;exitY=0.5;exitDx=0;exitDy=0;exitPerimeter=0;entryX=0;entryY=0.5;entryDx=0;entryDy=0;" edge="1" parent="1" source="dz4LIF3dMp10zd91oUcG-215" target="dz4LIF3dMp10zd91oUcG-201">
          <mxGeometry width="160" relative="1" as="geometry">
            <mxPoint x="20" y="230" as="sourcePoint" />
            <mxPoint x="180" y="230" as="targetPoint" />
            <Array as="points">
              <mxPoint x="25" y="110" />
            </Array>
          </mxGeometry>
        </mxCell>
        <mxCell id="dz4LIF3dMp10zd91oUcG-224" value="" style="endArrow=open;endFill=1;endSize=12;html=1;rounded=0;exitX=0.5;exitY=0.5;exitDx=0;exitDy=0;exitPerimeter=0;entryX=0;entryY=0.5;entryDx=0;entryDy=0;" edge="1" parent="1" source="dz4LIF3dMp10zd91oUcG-215" target="dz4LIF3dMp10zd91oUcG-202">
          <mxGeometry width="160" relative="1" as="geometry">
            <mxPoint x="35" y="330" as="sourcePoint" />
            <mxPoint x="355" y="120" as="targetPoint" />
            <Array as="points">
              <mxPoint x="80" y="220" />
            </Array>
          </mxGeometry>
        </mxCell>
        <mxCell id="dz4LIF3dMp10zd91oUcG-225" value="" style="endArrow=open;endFill=1;endSize=12;html=1;rounded=0;entryX=0;entryY=0.5;entryDx=0;entryDy=0;exitX=0.5;exitY=0.5;exitDx=0;exitDy=0;exitPerimeter=0;" edge="1" parent="1" source="dz4LIF3dMp10zd91oUcG-215" target="dz4LIF3dMp10zd91oUcG-204">
          <mxGeometry width="160" relative="1" as="geometry">
            <mxPoint x="35" y="330" as="sourcePoint" />
            <mxPoint x="230" y="225" as="targetPoint" />
            <Array as="points">
              <mxPoint x="110" y="320" />
            </Array>
          </mxGeometry>
        </mxCell>
        <mxCell id="dz4LIF3dMp10zd91oUcG-227" value="&amp;lt;&amp;lt;include&amp;gt;&amp;gt;" style="endArrow=open;endSize=12;dashed=1;html=1;rounded=0;exitX=0.982;exitY=0.648;exitDx=0;exitDy=0;exitPerimeter=0;entryX=0.416;entryY=-0.019;entryDx=0;entryDy=0;entryPerimeter=0;" edge="1" parent="1" source="dz4LIF3dMp10zd91oUcG-204" target="dz4LIF3dMp10zd91oUcG-205">
          <mxGeometry width="160" relative="1" as="geometry">
            <mxPoint x="170" y="410" as="sourcePoint" />
            <mxPoint x="330" y="410" as="targetPoint" />
          </mxGeometry>
        </mxCell>
        <mxCell id="dz4LIF3dMp10zd91oUcG-228" style="edgeStyle=orthogonalEdgeStyle;rounded=0;orthogonalLoop=1;jettySize=auto;html=1;exitX=0.5;exitY=0.5;exitDx=0;exitDy=0;exitPerimeter=0;entryX=0.5;entryY=0.5;entryDx=0;entryDy=0;entryPerimeter=0;" edge="1" parent="1" source="dz4LIF3dMp10zd91oUcG-198" target="dz4LIF3dMp10zd91oUcG-215">
          <mxGeometry relative="1" as="geometry">
            <Array as="points">
              <mxPoint x="-180" y="640" />
              <mxPoint x="-180" y="560" />
            </Array>
          </mxGeometry>
        </mxCell>
        <mxCell id="dz4LIF3dMp10zd91oUcG-230" style="edgeStyle=orthogonalEdgeStyle;rounded=0;orthogonalLoop=1;jettySize=auto;html=1;exitX=0.5;exitY=0.5;exitDx=0;exitDy=0;exitPerimeter=0;entryX=0.5;entryY=0.5;entryDx=0;entryDy=0;entryPerimeter=0;" edge="1" parent="1" source="dz4LIF3dMp10zd91oUcG-196" target="dz4LIF3dMp10zd91oUcG-215">
          <mxGeometry relative="1" as="geometry">
            <Array as="points">
              <mxPoint x="-180" y="505" />
              <mxPoint x="-180" y="560" />
            </Array>
          </mxGeometry>
        </mxCell>
        <mxCell id="dz4LIF3dMp10zd91oUcG-231" value="" style="endArrow=open;endFill=1;endSize=12;html=1;rounded=0;entryX=0;entryY=0.5;entryDx=0;entryDy=0;exitX=0.5;exitY=0.5;exitDx=0;exitDy=0;exitPerimeter=0;" edge="1" parent="1" source="dz4LIF3dMp10zd91oUcG-215" target="dz4LIF3dMp10zd91oUcG-206">
          <mxGeometry width="160" relative="1" as="geometry">
            <mxPoint x="-30" y="535" as="sourcePoint" />
            <mxPoint x="230" y="325" as="targetPoint" />
            <Array as="points">
              <mxPoint x="80" y="480" />
            </Array>
          </mxGeometry>
        </mxCell>
        <mxCell id="dz4LIF3dMp10zd91oUcG-232" value="" style="endArrow=open;endFill=1;endSize=12;html=1;rounded=0;entryX=0.007;entryY=0.45;entryDx=0;entryDy=0;exitX=0.5;exitY=0.5;exitDx=0;exitDy=0;exitPerimeter=0;entryPerimeter=0;" edge="1" parent="1" source="dz4LIF3dMp10zd91oUcG-215" target="dz4LIF3dMp10zd91oUcG-207">
          <mxGeometry width="160" relative="1" as="geometry">
            <mxPoint x="-45" y="555" as="sourcePoint" />
            <mxPoint x="230" y="525" as="targetPoint" />
            <Array as="points" />
          </mxGeometry>
        </mxCell>
        <mxCell id="dz4LIF3dMp10zd91oUcG-233" value="" style="endArrow=open;endFill=1;endSize=12;html=1;rounded=0;entryX=0;entryY=0.5;entryDx=0;entryDy=0;exitX=0.5;exitY=0.5;exitDx=0;exitDy=0;exitPerimeter=0;" edge="1" parent="1" source="dz4LIF3dMp10zd91oUcG-215" target="dz4LIF3dMp10zd91oUcG-208">
          <mxGeometry width="160" relative="1" as="geometry">
            <mxPoint x="-45" y="555" as="sourcePoint" />
            <mxPoint x="231" y="621" as="targetPoint" />
            <Array as="points">
              <mxPoint x="60" y="640" />
            </Array>
          </mxGeometry>
        </mxCell>
        <mxCell id="dz4LIF3dMp10zd91oUcG-234" value="" style="endArrow=open;endFill=1;endSize=12;html=1;rounded=0;entryX=0;entryY=0.5;entryDx=0;entryDy=0;exitX=0.5;exitY=0.5;exitDx=0;exitDy=0;exitPerimeter=0;" edge="1" parent="1" source="dz4LIF3dMp10zd91oUcG-215" target="dz4LIF3dMp10zd91oUcG-209">
          <mxGeometry width="160" relative="1" as="geometry">
            <mxPoint x="-45" y="555" as="sourcePoint" />
            <mxPoint x="230" y="735" as="targetPoint" />
            <Array as="points">
              <mxPoint x="100" y="720" />
            </Array>
          </mxGeometry>
        </mxCell>
        <mxCell id="dz4LIF3dMp10zd91oUcG-235" value="" style="endArrow=open;endFill=1;endSize=12;html=1;rounded=0;entryX=0;entryY=0.5;entryDx=0;entryDy=0;exitX=0.5;exitY=0.5;exitDx=0;exitDy=0;exitPerimeter=0;" edge="1" parent="1" source="dz4LIF3dMp10zd91oUcG-215" target="dz4LIF3dMp10zd91oUcG-210">
          <mxGeometry width="160" relative="1" as="geometry">
            <mxPoint x="-45" y="555" as="sourcePoint" />
            <mxPoint x="355" y="840" as="targetPoint" />
            <Array as="points">
              <mxPoint x="80" y="800" />
            </Array>
          </mxGeometry>
        </mxCell>
        <mxCell id="dz4LIF3dMp10zd91oUcG-236" value="" style="endArrow=open;endFill=1;endSize=12;html=1;rounded=0;entryX=0.012;entryY=0.637;entryDx=0;entryDy=0;entryPerimeter=0;exitX=0.5;exitY=0.5;exitDx=0;exitDy=0;exitPerimeter=0;" edge="1" parent="1" source="dz4LIF3dMp10zd91oUcG-215" target="dz4LIF3dMp10zd91oUcG-211">
          <mxGeometry width="160" relative="1" as="geometry">
            <mxPoint x="-30" y="583" as="sourcePoint" />
            <mxPoint x="355" y="950" as="targetPoint" />
            <Array as="points">
              <mxPoint x="40" y="890" />
            </Array>
          </mxGeometry>
        </mxCell>
        <mxCell id="dz4LIF3dMp10zd91oUcG-237" value="" style="endArrow=open;endFill=1;endSize=12;html=1;rounded=0;entryX=1;entryY=0.5;entryDx=0;entryDy=0;exitX=0.5;exitY=0.5;exitDx=0;exitDy=0;exitPerimeter=0;" edge="1" parent="1" source="dz4LIF3dMp10zd91oUcG-199" target="dz4LIF3dMp10zd91oUcG-201">
          <mxGeometry width="160" relative="1" as="geometry">
            <mxPoint x="690" y="550" as="sourcePoint" />
            <mxPoint x="1210" y="130" as="targetPoint" />
            <Array as="points">
              <mxPoint x="780" y="210" />
            </Array>
          </mxGeometry>
        </mxCell>
        <mxCell id="dz4LIF3dMp10zd91oUcG-238" value="" style="endArrow=open;endFill=1;endSize=12;html=1;rounded=0;exitX=0.5;exitY=0.5;exitDx=0;exitDy=0;exitPerimeter=0;entryX=1;entryY=0.5;entryDx=0;entryDy=0;" edge="1" parent="1" source="dz4LIF3dMp10zd91oUcG-199" target="dz4LIF3dMp10zd91oUcG-213">
          <mxGeometry width="160" relative="1" as="geometry">
            <mxPoint x="882" y="450" as="sourcePoint" />
            <mxPoint x="595" y="120" as="targetPoint" />
            <Array as="points" />
          </mxGeometry>
        </mxCell>
        <mxCell id="dz4LIF3dMp10zd91oUcG-239" value="" style="endArrow=open;endFill=1;endSize=12;html=1;rounded=0;entryX=1;entryY=0.5;entryDx=0;entryDy=0;exitX=0.5;exitY=0.5;exitDx=0;exitDy=0;exitPerimeter=0;" edge="1" parent="1" source="dz4LIF3dMp10zd91oUcG-199" target="dz4LIF3dMp10zd91oUcG-211">
          <mxGeometry width="160" relative="1" as="geometry">
            <mxPoint x="970" y="480" as="sourcePoint" />
            <mxPoint x="714" y="612" as="targetPoint" />
            <Array as="points">
              <mxPoint x="860" y="790" />
            </Array>
          </mxGeometry>
        </mxCell>
        <mxCell id="dz4LIF3dMp10zd91oUcG-241" value="" style="text;strokeColor=none;fillColor=none;align=left;verticalAlign=middle;spacingTop=-1;spacingLeft=4;spacingRight=4;rotatable=0;labelPosition=right;points=[];portConstraint=eastwest;" vertex="1" parent="1">
          <mxGeometry x="460" y="200" width="20" height="14" as="geometry" />
        </mxCell>
        <mxCell id="dz4LIF3dMp10zd91oUcG-242" value="&lt;font style=&quot;font-size: 18px;&quot;&gt;SPK Pemilihan Gur&lt;/font&gt;&lt;span style=&quot;font-size: 18px; background-color: transparent; color: light-dark(rgb(0, 0, 0), rgb(255, 255, 255));&quot;&gt;u Terbaik&lt;/span&gt;" style="text;align=center;fontStyle=1;verticalAlign=middle;spacingLeft=3;spacingRight=3;strokeColor=none;rotatable=0;points=[[0,0.5],[1,0.5]];portConstraint=eastwest;html=1;" vertex="1" parent="1">
          <mxGeometry x="450" y="10" width="80" height="26" as="geometry" />
        </mxCell>
        <mxCell id="dz4LIF3dMp10zd91oUcG-243" value="" style="endArrow=open;endFill=1;endSize=12;html=1;rounded=0;exitX=0.5;exitY=0.5;exitDx=0;exitDy=0;exitPerimeter=0;" edge="1" parent="1" source="dz4LIF3dMp10zd91oUcG-199" target="dz4LIF3dMp10zd91oUcG-209">
          <mxGeometry width="160" relative="1" as="geometry">
            <mxPoint x="1015" y="560" as="sourcePoint" />
            <mxPoint x="575" y="1030" as="targetPoint" />
            <Array as="points">
              <mxPoint x="820" y="700" />
            </Array>
          </mxGeometry>
        </mxCell>
      </root>
    </mxGraphModel>
  </diagram>
</mxfile>
